<?xml version="1.0" standalone="no"?><!DOCTYPE svg PUBLIC "-//W3C//DTD SVG 1.1//EN" "http://www.w3.org/Graphics/SVG/1.1/DTD/svg11.dtd"><svg class="icon" height="512" viewBox="0 0 1024 1024" version="1.1" xmlns="http://www.w3.org/2000/svg"><path d="M736.83968 795.93472v-179.30752l-620.78976 4.78208v175.23712h0.27136c0 73.55392 138.92608 133.20704 310.272 133.20704 171.35616 0 310.28224-59.648 310.28224-133.20704-0.00512-0.23552-0.03584-0.47616-0.03584-0.71168" fill="#88AF54" /><path d="M736.8704 616.63232c0 73.54368-138.92608 133.19168-310.28224 133.19168-171.36128 0-310.272-59.64288-310.272-133.19168 0-73.59488 138.91072-133.22752 310.272-133.22752 171.35616 0 310.28224 59.63264 310.28224 133.22752" fill="#FFFDFA" /><path d="M426.58816 511.77472c161.46944 0 282.10176 55.32672 282.10176 104.8576 0 49.46432-120.63232 104.81664-282.10176 104.81664-161.4592 0-282.10176-55.35232-282.10176-104.81664 0-49.51552 120.64256-104.8576 282.10176-104.8576m0-28.36992c-171.36128 0-310.272 59.648-310.272 133.22752 0 73.54368 138.91072 133.19168 310.272 133.19168 171.35616 0 310.28224-59.64288 310.28224-133.19168 0-73.58464-138.92608-133.22752-310.28224-133.22752" fill="#FFFDFA" /><path d="M736.83968 586.76224V407.44448l-620.78976 4.7616v175.25248h0.27136c0 73.55392 138.92608 133.1968 310.272 133.1968 171.35616 0 310.28224-59.63776 310.28224-133.1968-0.00512-0.2304-0.03584-0.4608-0.03584-0.69632" fill="#88AF54" /><path d="M736.7936 407.45984c0 73.54368-138.92608 133.1968-310.3232 133.1968-171.3664 0-310.2976-59.648-310.2976-133.1968 0-73.59488 138.9312-133.22752 310.2976-133.22752 171.39712 0.01024 310.3232 59.63264 310.3232 133.22752" fill="#FFFDFA" /><path d="M426.4704 302.60224c161.47456 0 282.10688 55.34208 282.10688 104.84736 0 49.5104-120.63232 104.84224-282.10688 104.84224-161.44384 0-282.06592-55.33184-282.06592-104.84224 0.01024-49.50528 120.62208-104.84736 282.06592-104.84736m0-28.35968c-171.35616 0-310.2976 59.62752-310.2976 133.20704 0 73.5488 138.94144 133.21216 310.2976 133.21216 171.41248 0 310.33344-59.65824 310.33344-133.21216-0.01024-73.58464-138.93632-133.20704-310.33344-133.20704" fill="#FFFDFA" /><path d="M736.83968 377.6V198.28224h-0.04608c0 73.56928-138.92608 133.1968-310.3232 133.1968-167.61856 0-303.85664-57.09312-309.70368-128.42496h-0.7168v175.24736h0.27136c0 73.54368 138.92608 133.21216 310.272 133.21216 171.35616 0 310.28224-59.66336 310.28224-133.21216-0.00512-0.2304-0.03584-0.47104-0.03584-0.70144" fill="#88AF54" /><path d="M425.00608 84.096c-161.47968 0-308.34688 66.32448-280.59648 127.96416 0.56832 1.36704 0.46592 3.0464 0.68096 4.53632 7.04512 48.27648 124.86656 100.29568 281.3952 100.29568 161.20832 0 281.71776-55.19872 282.06592-104.63232 0-0.08192 0-0.14848 0.02048-0.19968 24.73984-65.08544-122.10176-127.96416-283.56608-127.96416" fill="#FFFDFA" /><path d="M426.4704 65.05984c-171.35616 0-310.2976 59.62752-310.2976 133.21728 0 1.60256 0.42496 3.1488 0.5888 4.77696 5.86752 71.33184 142.08 128.42496 309.71392 128.42496 171.39712 0 310.31296-59.63776 310.31296-133.1968 0.00512-73.59488-138.92096-133.2224-310.31808-133.2224m0 238.04416c-156.5184 0-274.34496-52.01408-281.38496-100.26496-0.22016-1.536-0.67584-3.05664-0.67584-4.56192 0-49.50528 120.62208-104.86784 282.06592-104.86784 161.47456 0 282.10688 55.35232 282.10688 104.86784 0 0.0768-0.02048 0.13824-0.02048 0.20992-0.36352 49.4336-120.87808 104.61696-282.09152 104.61696" fill="#FFFDFA" /><path d="M426.4704 50.46784c-171.35616 0-310.2976 59.64288-310.2976 133.21728 0 1.62816 0.42496 3.18976 0.5888 4.78208 5.86752 71.33184 142.08 128.42496 309.71392 128.42496 171.39712 0 310.31296-59.63776 310.31296-133.20704 0.00512-73.56416-138.92096-133.21728-310.31808-133.21728m0 238.04928c-156.5184 0-274.34496-52.02432-281.38496-100.26496-0.22016-1.54624-0.67584-3.0464-0.67584-4.56704 0-49.50016 120.62208-104.83712 282.06592-104.83712 161.47456 0 282.10688 55.33184 282.10688 104.83712 0 0.07168-0.02048 0.14848-0.02048 0.24064-0.36352 49.408-120.87808 104.59136-282.09152 104.59136" fill="#80A032" /><path d="M658.19648 696.89344m-277.94432 0a277.94432 277.94432 0 1 0 555.88864 0 277.94432 277.94432 0 1 0-555.88864 0Z" fill="#FFFFFF" /><path d="M656.89088 742.48192c-0.48128-1.0752-0.72704-3.1232-0.72704-6.15424v-20.34176c0-4.3264-0.37888-7.52128-1.14176-9.58464-1.1264-2.9952-2.63168-5.12512-4.48-6.44096-1.88416-1.29536-4.11136-1.94048-6.72256-1.94048-5.06368 0-10.38848 3.3536-15.98976 10.09152v-10.09152h-2.24256l-14.35648 5.81632 0.77312 1.88416c1.3568-0.53248 2.51392-0.7936 3.49184-0.7936 0.89088 0 1.60768 0.22528 2.16576 0.67072 0.53248 0.49152 0.91648 1.3056 1.19296 2.57024 0.26112 1.23904 0.38912 4.75648 0.38912 10.44992v17.71008c0 3.47136-0.41984 5.82656-1.26976 7.04512-0.8448 1.22368-2.49856 1.8688-4.91008 1.8688h-1.05984v1.8688h23.58272v-1.8688c-2.60096 0-4.33664-0.2304-5.15584-0.71168a4.7104 4.7104 0 0 1-2.01216-2.2272c-0.384-0.74752-0.56832-2.74944-0.56832-5.98016v-25.15968c4.096-4.5056 8.22272-6.76352 12.32896-6.76352 2.66752 0 4.5824 0.9728 5.71904 2.94912 1.1264 1.95584 1.68448 5.11488 1.68448 9.4464v19.52768c0 2.7392-0.06656 4.37248-0.19456 4.8896-0.35328 1.31584-0.96256 2.304-1.85344 3.00032-0.88064 0.68096-2.43712 1.00864-4.6592 1.00864h-0.98816v1.88416h23.58272v-1.88416c-2.29376 0-3.8656-0.23552-4.72576-0.73216a4.096 4.096 0 0 1-1.85344-2.00704z m57.58464-40.99072c-0.24576-0.1024-1.11616-0.13312-2.6112-0.13312h-10.10176c-3.33824-2.23232-7.25504-3.33312-11.81696-3.33312-5.53984 0-10.09152 1.69984-13.65504 5.0944-3.5584 3.41504-5.32992 7.4752-5.32992 12.17536 0 3.09248 0.77312 5.91872 2.31936 8.46336 1.57696 2.56 3.80416 4.54656 6.72768 5.9648-3.56864 2.99008-5.85216 5.30432-6.85056 6.91712-0.9984 1.6128-1.48992 3.03616-1.48992 4.26496 0 1.0752 0.36352 2.04288 1.11616 2.89792 0.74752 0.86016 2.0224 1.8176 3.83488 2.8928a212.02944 212.02944 0 0 0-5.31968 5.62176c-1.83296 2.28864-3.06176 4.06528-3.65568 5.37088a6.0416 6.0416 0 0 0-0.55808 2.50368c0 1.8688 1.29024 3.6608 3.90144 5.41696 4.61824 3.02592 10.27072 4.52608 16.96256 4.52608 8.71936 0 15.77984-2.5344 21.19168-7.59808 3.69664-3.4304 5.51424-7.11168 5.51424-11.03872 0-2.84672-0.95232-5.23776-2.88256-7.18848-1.94048-1.93536-4.50048-3.13344-7.73632-3.58912-2.11456-0.3072-6.7584-0.54272-13.91616-0.72704-3.88608-0.12288-6.31296-0.22528-7.27552-0.36352-1.664-0.24064-2.7904-0.64512-3.3536-1.22368a2.33472 2.33472 0 0 1-0.85504-1.71008c0-0.67072 0.26112-1.536 0.79872-2.52416 0.53248-0.99328 1.58208-2.14528 3.0976-3.456 2.4576 0.6912 4.87424 1.03936 7.2192 1.03936 5.7344 0 10.3168-1.59744 13.696-4.74624 3.39456-3.1488 5.11488-6.95808 5.11488-11.41248 0-3.88608-0.9728-7.07584-2.92352-9.57952h6.17984c1.50528 0 2.36544-0.06144 2.64192-0.15872 0.27136-0.09728 0.45568-0.23552 0.53248-0.4096 0.1792-0.36352 0.26624-0.9728 0.26624-1.8944 0-0.79872-0.10752-1.34656-0.31744-1.64352a0.65536 0.65536 0 0 0-0.46592-0.41984z m-34.97984 45.6192c4.18816 0.59392 10.19392 0.98816 18.00192 1.2032 5.34528 0.128 8.92928 0.57856 10.73664 1.3568 1.7664 0.74752 2.65216 2.03264 2.65216 3.84512 0 2.49344-1.4848 4.84864-4.43392 7.05536-2.97472 2.20672-7.5776 3.3024-13.84448 3.3024-6.5536 0-11.56096-1.05984-15.03232-3.21536-2.01216-1.24928-3.01056-2.70336-3.01056-4.3776 0-1.29024 0.41984-2.69312 1.23904-4.21376 0.81408-1.536 2.06336-3.17952 3.69152-4.95616z m17.42848-20.87936c-1.6896 1.97632-3.87072 2.97472-6.50752 2.97472-2.77504 0-5.06368-1.14688-6.87104-3.43552-2.36032-3.02592-3.5328-7.27552-3.5328-12.75904 0-4.224 0.84992-7.37792 2.60608-9.4208 1.72544-2.048 3.87584-3.07712 6.44608-3.07712 2.77504 0 5.04832 1.16736 6.81472 3.456 2.40128 3.10272 3.60448 7.43424 3.60448 12.94848 0 4.23424-0.8448 7.33696-2.56 9.31328z m-112.96256-28.2112c-3.95776 0-7.70048 1.024-11.24864 3.09248-3.5328 2.05312-6.38976 5.23776-8.56064 9.56928-2.18112 4.33152-3.26144 8.66816-3.26144 13.056 0 6.00064 1.792 11.41248 5.37088 16.23552 4.22912 5.7344 9.93792 8.6016 17.13152 8.6016 4.39296 0 8.39168-1.11616 11.9808-3.328 3.60448-2.24256 6.43072-5.5296 8.46336-9.90208 2.02752-4.3776 3.06688-8.68352 3.06688-12.95872a25.31328 25.31328 0 0 0-5.56032-16.13824c-4.3776-5.48864-10.17344-8.22784-17.3824-8.22784z m9.98912 42.6752c-2.18112 2.79552-4.96128 4.16256-8.30976 4.16256-4.51584 0-8.15104-2.51904-10.9056-7.54688-2.7648-5.04832-4.14208-11.0336-4.14208-17.96608 0-4.31104 0.56832-7.82848 1.72032-10.56256 1.14176-2.73408 2.64704-4.6592 4.49536-5.77536a10.83904 10.83904 0 0 1 5.53984-1.61792c3.8144 0 6.94784 1.65888 9.4208 5.01248 3.65056 4.8384 5.46816 11.50976 5.46816 19.97824-0.01024 6.77888-1.10592 11.55584-3.28704 14.31552z m149.92896-42.6752c-3.94752 0-7.70048 1.024-11.2384 3.09248-3.5328 2.05312-6.41024 5.23776-8.56064 9.56928-2.19136 4.33152-3.2768 8.66816-3.2768 13.056a26.5216 26.5216 0 0 0 5.376 16.23552c4.24448 5.7344 9.94816 8.6016 17.11616 8.6016 4.4032 0 8.41216-1.11616 12.00128-3.328 3.584-2.24256 6.42048-5.5296 8.45824-9.90208 2.04288-4.3776 3.05152-8.68352 3.05152-12.95872 0-6.08256-1.83296-11.45856-5.55008-16.13824-4.352-5.48864-10.15296-8.22784-17.37728-8.22784z m9.99936 42.6752c-2.18112 2.79552-4.9664 4.16256-8.33024 4.16256-4.51072 0-8.15104-2.51904-10.89024-7.54688-2.75968-5.04832-4.15232-11.0336-4.15232-17.96608 0-4.31104 0.57856-7.82848 1.72032-10.56256 1.15712-2.73408 2.65216-4.6592 4.51072-5.77536a10.83904 10.83904 0 0 1 5.53984-1.61792c3.8144 0 6.95296 1.65888 9.4208 5.01248 3.64544 4.8384 5.46816 11.50976 5.46816 19.97824-0.00512 6.77888-1.09568 11.55584-3.28704 14.31552z m-203.55072 1.78688c-0.4608-1.1264-0.6912-3.15392-0.6912-6.15424v-20.51584c0-4.30592-0.36864-7.45472-1.14176-9.48224-1.16224-2.94912-2.69824-5.0688-4.66944-6.36928a11.8784 11.8784 0 0 0-6.74816-1.94048c-2.60096 0-5.10976 0.66048-7.58784 1.94048-2.46272 1.30048-5.46816 4.03968-9.05216 8.20736-0.73216-3.30752-2.16576-5.82656-4.32128-7.56224-2.1504-1.73056-4.74112-2.60608-7.7056-2.60608-1.7664 0-3.55328 0.36352-5.37088 1.09056a18.99008 18.99008 0 0 0-5.03808 3.07712c-0.6144 0.53248-2.67776 2.51392-6.15936 5.98528v-10.14784h-2.2528l-14.34624 5.83168 0.77824 1.88928c1.3568-0.53248 2.51904-0.79872 3.48672-0.79872 0.89088 0 1.60256 0.22016 2.1248 0.65024 0.5376 0.44032 0.90112 1.23904 1.15712 2.36544 0.32256 1.53088 0.47104 4.91008 0.47104 10.14784v18.21696c0 2.95424-0.21504 4.93056-0.66048 5.95456a4.52608 4.52608 0 0 1-1.97632 2.24256c-0.86528 0.48128-2.39616 0.71168-4.5824 0.71168v1.88416h23.5776v-1.88416c-2.6112 0-4.33152-0.2304-5.19168-0.71168a4.67968 4.67968 0 0 1-1.93536-2.0992c-0.43008-0.93184-0.63488-2.97472-0.63488-6.0928v-25.56928c1.5616-1.89952 3.77344-3.61984 6.65088-5.13536a11.6736 11.6736 0 0 1 5.58592-1.5104c2.72896 0 4.87936 1.11616 6.4 3.328 1.15712 1.71008 1.72032 4.49536 1.72032 8.39168v20.51072c0 2.84672-0.08704 4.56192-0.26112 5.15072a4.8128 4.8128 0 0 1-2.06336 2.80064c-0.98304 0.62976-2.79552 0.94208-5.43232 0.94208v1.8688h24.09472v-1.8688c-2.42176 0-4.1472-0.2816-5.14048-0.81408a4.57728 4.57728 0 0 1-2.05824-1.9968c-0.36864-0.80896-0.53248-2.82624-0.53248-6.0928v-22.7584l-0.11776-2.23744 0.11776-0.57344c2.64192-2.49344 4.87936-4.1984 6.73792-5.10976 1.8688-0.91136 3.70688-1.3824 5.55008-1.3824 3.00032 0 5.1456 1.11616 6.51776 3.34848 0.9216 1.5872 1.39776 4.33664 1.39776 8.2176v20.51584c0 2.77504-0.07168 4.44928-0.19456 5.0432-0.36352 1.23392-0.91648 2.0992-1.72032 2.65728-1.15712 0.79872-2.75456 1.21344-4.79744 1.21344h-0.98816v1.87392h23.54176v-1.87392c-2.12992 0-3.65568-0.2816-4.58752-0.82432-0.95744-0.54272-1.61792-1.18784-1.95072-1.9456z" fill="#422E25" /><path d="M448.62464 645.79072c-7.87456-10.0096-15.13472-15.34976-19.4304-25.82016-2.432 9.15968-9.00608 10.496-15.04256 18.40128-9.63584 12.59008-21.19168 37.90336-18.1248 61.65504 1.87392 14.42816 7.13216 25.58464 14.26944 35.24096a67.65056 67.65056 0 0 0 12.82048 13.34272c5.4784 4.41344 5.90848 6.31296 6.08768 20.36736l3.85024 1.152h0.37888c-0.05632-5.3248-1.3568-12.05248 0.39936-16.86016 1.97632-5.44256 9.984-9.00096 13.48608-13.40416 4.85888-6.08768 9.61024-13.20448 12.34944-21.06368 9.70752-27.73504 1.84832-50.70848-9.22112-69.9904-0.60928-1.024-1.09056-2.10432-1.82272-3.0208z" fill="#2AA515" /><path d="M825.5488 681.66656c-5.12512-2.28864-11.91936-3.45088-20.352-3.45088h-31.5904v1.9456h2.33472c1.97632 0 3.55328 0.33792 4.72064 1.024 1.16736 0.67584 1.94048 1.4592 2.304 2.33472 0.37888 0.9216 0.56832 3.1744 0.56832 6.77888v46.42816c0 3.65056-0.16896 5.83168-0.47104 6.55872a6.07744 6.07744 0 0 1-2.42176 2.63168c-1.09056 0.64-2.65728 0.96256-4.72064 0.96256h-2.33984v1.92512h31.59552c4.56192 0 7.8848-0.19968 9.99936-0.60928 4.79744-0.87552 8.85248-2.18624 12.16512-3.82976a30.1312 30.1312 0 0 0 8.76032-6.53312c2.54464-2.72384 4.60288-6.19008 6.20032-10.37824 1.5872-4.18816 2.39616-8.75008 2.39616-13.7216 0-7.17824-1.61792-13.6192-4.85888-19.30752-3.2512-5.69344-8.00768-9.9584-14.28992-12.75904z m-5.88288 57.35936c-3.04128 3.96288-7.49056 5.93408-13.26592 5.93408-1.76128 0-3.1232-0.25088-4.05504-0.77824a2.83136 2.83136 0 0 1-1.40288-1.52064c-0.28672-0.64512-0.42496-2.45248-0.42496-5.36064v-55.10144c5.79584-0.03584 9.94304 0.50688 12.4416 1.58208 3.5328 1.53088 6.45632 4.4032 8.69376 8.63744 2.85184 5.42208 4.27008 12.6464 4.27008 21.69856-0.01024 11.27424-2.09408 19.56864-6.25664 24.9088zM910.72 717.06112c-2.69312-2.24256-7.41888-4.11136-14.11584-5.66784 6.21568-1.58208 10.56256-3.69664 13.02528-6.32832 2.4576-2.65728 3.69664-5.6832 3.69664-9.08288 0-3.23072-0.96768-6.272-2.90816-9.1392-1.94048-2.8672-4.60288-5.01248-7.97696-6.45632-3.34336-1.4336-9.07264-2.16576-17.17248-2.16576h-33.83296v1.93536c3.24096 0 5.44768 0.30208 6.61504 0.87552 1.17248 0.59392 2.00704 1.38752 2.47808 2.3808 0.4608 0.98304 0.6912 3.38944 0.6912 7.20896v45.81376c0 3.79904-0.2304 6.20544-0.6912 7.19872a5.28896 5.28896 0 0 1-2.45248 2.33472c-1.1776 0.6144-3.36896 0.9216-6.64576 0.9216v1.92512h35.87072c9.99936 0 17.60256-2.07872 22.85056-6.29248 4.26496-3.46112 6.40512-7.87456 6.40512-13.17888 0-5.02784-1.95072-9.12896-5.8368-12.28288z m-33.0496-34.89792c5.0688-0.01536 8.73472 0.48128 11.0336 1.52576 2.29376 1.03936 4.05504 2.54976 5.28896 4.56192 1.23904 1.98656 1.83296 4.5568 1.83296 7.66976 0 3.1232-0.59392 5.69344-1.8688 7.70048-1.23904 2.01216-3.04128 3.56864-5.39136 4.69504-2.34496 1.11104-5.98016 1.66912-10.90048 1.66912h-0.00512 0.00512v-27.82208h0.00512z m18.68288 55.59296a12.65152 12.65152 0 0 1-5.38624 5.37088c-2.3552 1.23904-4.89984 1.84832-7.68 1.84832-1.87392 0-3.29728-0.48128-4.24448-1.4336-0.95232-0.9472-1.42848-2.36032-1.42848-4.2496l0.05632-2.60608v-22.64576c5.30432-0.04096 9.29792 0.47616 11.97568 1.51552 2.66752 1.03936 4.7616 2.87744 6.29248 5.48352 1.54112 2.61632 2.28864 5.57056 2.28864 8.87808a16.29696 16.29696 0 0 1-1.87392 7.83872z" fill="#8E704E" /></svg>